<?xml version="1.0" encoding="UTF-8"?>
<svg xmlns="http://www.w3.org/2000/svg" xmlns:xlink="http://www.w3.org/1999/xlink" width="0.097px" height="0.075px" viewBox="-3 0 30 12" version="1.1">
<g id="surface1">
<path style="fill:none;stroke-width:2;stroke-linecap:round;stroke-linejoin:round;stroke:rgb(20%,20%,20%);stroke-opacity:1;stroke-miterlimit:4;" d="M 4.301858 10.87322 L 4.301858 26.947447 " transform="matrix(0.510317,0,0,0.513487,0,0.0300247)"/>
<path style="fill:none;stroke-width:2;stroke-linecap:round;stroke-linejoin:round;stroke:rgb(20%,20%,20%);stroke-opacity:1;stroke-miterlimit:4;" d="M 1.002746 0.998943 L 1.002746 7.60208 " transform="matrix(0.510317,0,0,0.513487,0,0.0300247)"/>
<path style="fill:none;stroke-width:2;stroke-linecap:round;stroke-linejoin:round;stroke:rgb(20%,20%,20%);stroke-opacity:1;stroke-miterlimit:4;" d="M 4.301858 0.998943 L 4.301858 7.60208 " transform="matrix(0.510317,0,0,0.513487,0,0.0300247)"/>
<path style="fill:none;stroke-width:2;stroke-linecap:round;stroke-linejoin:round;stroke:rgb(20%,20%,20%);stroke-opacity:1;stroke-miterlimit:4;" d="M 7.60097 0.998943 L 7.60097 7.60208 " transform="matrix(0.510317,0,0,0.513487,0,0.0300247)"/>
<path style="fill:none;stroke-width:2;stroke-linecap:round;stroke-linejoin:round;stroke:rgb(20%,20%,20%);stroke-opacity:1;stroke-miterlimit:4;" d="M 7.60097 7.60208 C 7.60097 9.420225 6.123641 10.903649 4.301858 10.903649 C 2.480075 10.903649 1.002746 9.420225 1.002746 7.60208 " transform="matrix(0.510317,0,0,0.513487,0,0.0300247)"/>
<path style="fill:none;stroke-width:2;stroke-linecap:round;stroke-linejoin:round;stroke:rgb(20%,20%,20%);stroke-opacity:1;stroke-miterlimit:4;" d="M 36.060593 13.976999 C 36.060593 21.150684 30.250788 26.962662 23.078473 26.962662 C 15.913813 26.962662 10.096354 21.150684 10.096354 13.976999 C 10.096354 6.810921 15.913813 0.998943 23.078473 0.998943 C 30.250788 0.998943 36.060593 6.810921 36.060593 13.976999 Z M 36.060593 13.976999 " transform="matrix(0.510317,0,0,0.513487,0,0.0300247)"/>
<path style="fill:none;stroke-width:2;stroke-linecap:round;stroke-linejoin:round;stroke:rgb(20%,20%,20%);stroke-opacity:1;stroke-miterlimit:4;" d="M 30.733025 13.976999 C 30.733025 18.206658 27.303786 21.629944 23.078473 21.629944 C 18.853161 21.629944 15.431576 18.206658 15.431576 13.976999 C 15.431576 9.754946 18.853161 6.331661 23.078473 6.331661 C 27.303786 6.331661 30.733025 9.754946 30.733025 13.976999 Z M 30.733025 13.976999 " transform="matrix(0.510317,0,0,0.513487,0,0.0300247)"/>
<path style="fill:none;stroke-width:2;stroke-linecap:round;stroke-linejoin:round;stroke:rgb(20%,20%,20%);stroke-opacity:1;stroke-miterlimit:4;" d="M 44.067254 0.998943 L 44.067254 27.000699 L 40.852342 27.000699 L 41.610143 19.332539 C 41.610143 19.332539 38.946359 19.233644 39.727123 16.259189 C 40.507887 13.292342 40.852342 2.003106 44.067254 0.998943 Z M 44.067254 0.998943 " transform="matrix(0.510317,0,0,0.513487,0,0.0300247)"/>
</g>
</svg>
